<svg xmlns="http://www.w3.org/2000/svg" viewBox="0 40 1800 1012" width="1920" height="1080" preserveAspectRatio="xMidYMid slice" role="img"><defs><pattern id="weave" width="8" height="8" patternUnits="userSpaceOnUse">
      <rect width="8" height="8" fill="none"/>
      <path d="M0 0H8" stroke="#ffffff" stroke-width="0.6" opacity="0.07"/>
      <path d="M0 4H8" stroke="#000000" stroke-width="0.6" opacity="0.05"/>
      <path d="M0 0V8" stroke="#000000" stroke-width="0.5" opacity="0.055"/>
    </pattern><linearGradient id="drape" x1="0" y1="0" x2="1" y2="0.35">
      <stop offset="0%" stop-color="#401320" stop-opacity="0.72"/>
      <stop offset="16%" stop-color="#8e5164" stop-opacity="0.30"/>
      <stop offset="31%" stop-color="#401320" stop-opacity="0.50"/>
      <stop offset="47%" stop-color="#8e5164" stop-opacity="0.34"/>
      <stop offset="63%" stop-color="#401320" stop-opacity="0.44"/>
      <stop offset="79%" stop-color="#8e5164" stop-opacity="0.26"/>
      <stop offset="100%" stop-color="#401320" stop-opacity="0.66"/>
    </linearGradient><linearGradient id="zari" x1="0" y1="0" x2="1" y2="1">
      <stop offset="0%" stop-color="#947d52"/>
      <stop offset="34%" stop-color="#D4B375"/>
      <stop offset="52%" stop-color="#ecddc1"/>
      <stop offset="70%" stop-color="#D4B375"/>
      <stop offset="100%" stop-color="#9d8457"/>
    </linearGradient><linearGradient id="vignette" x1="0" y1="0" x2="0" y2="1">
      <stop offset="0%" stop-color="#000000" stop-opacity="0.22"/>
      <stop offset="34%" stop-color="#000000" stop-opacity="0"/>
      <stop offset="100%" stop-color="#000000" stop-opacity="0.26"/>
    </linearGradient></defs><rect width="1800" height="1400" fill="#6E2038"/><rect width="1800" height="1400" fill="url(#weave)"/><g fill="url(#zari)" color="#D4B375" opacity="0.78"><g transform="rotate(-0.0 -114 -60)"><ellipse cx="-114" cy="-74.8" rx="5.2" ry="14.8" transform="rotate(0 -114 -60)"/><ellipse cx="-114" cy="-74.8" rx="5.2" ry="14.8" transform="rotate(45 -114 -60)"/><ellipse cx="-114" cy="-74.8" rx="5.2" ry="14.8" transform="rotate(90 -114 -60)"/><ellipse cx="-114" cy="-74.8" rx="5.2" ry="14.8" transform="rotate(135 -114 -60)"/><ellipse cx="-114" cy="-74.8" rx="5.2" ry="14.8" transform="rotate(180 -114 -60)"/><ellipse cx="-114" cy="-74.8" rx="5.2" ry="14.8" transform="rotate(225 -114 -60)"/><ellipse cx="-114" cy="-74.8" rx="5.2" ry="14.8" transform="rotate(270 -114 -60)"/><ellipse cx="-114" cy="-74.8" rx="5.2" ry="14.8" transform="rotate(315 -114 -60)"/><circle cx="-114" cy="-60" r="4.7"/></g><g transform="rotate(-1.3 62 -60)"><ellipse cx="62" cy="-77.0" rx="6.0" ry="17.0" transform="rotate(0 62 -60)"/><ellipse cx="62" cy="-77.0" rx="6.0" ry="17.0" transform="rotate(45 62 -60)"/><ellipse cx="62" cy="-77.0" rx="6.0" ry="17.0" transform="rotate(90 62 -60)"/><ellipse cx="62" cy="-77.0" rx="6.0" ry="17.0" transform="rotate(135 62 -60)"/><ellipse cx="62" cy="-77.0" rx="6.0" ry="17.0" transform="rotate(180 62 -60)"/><ellipse cx="62" cy="-77.0" rx="6.0" ry="17.0" transform="rotate(225 62 -60)"/><ellipse cx="62" cy="-77.0" rx="6.0" ry="17.0" transform="rotate(270 62 -60)"/><ellipse cx="62" cy="-77.0" rx="6.0" ry="17.0" transform="rotate(315 62 -60)"/><circle cx="62" cy="-60" r="5.4"/></g><g transform="rotate(0.3 238 -60)"><ellipse cx="238" cy="-76.7" rx="5.9" ry="16.7" transform="rotate(0 238 -60)"/><ellipse cx="238" cy="-76.7" rx="5.9" ry="16.7" transform="rotate(45 238 -60)"/><ellipse cx="238" cy="-76.7" rx="5.9" ry="16.7" transform="rotate(90 238 -60)"/><ellipse cx="238" cy="-76.7" rx="5.9" ry="16.7" transform="rotate(135 238 -60)"/><ellipse cx="238" cy="-76.7" rx="5.9" ry="16.7" transform="rotate(180 238 -60)"/><ellipse cx="238" cy="-76.7" rx="5.9" ry="16.7" transform="rotate(225 238 -60)"/><ellipse cx="238" cy="-76.7" rx="5.9" ry="16.7" transform="rotate(270 238 -60)"/><ellipse cx="238" cy="-76.7" rx="5.9" ry="16.7" transform="rotate(315 238 -60)"/><circle cx="238" cy="-60" r="5.3"/></g><g transform="rotate(2.9 414 -60)"><ellipse cx="414" cy="-76.8" rx="5.9" ry="16.8" transform="rotate(0 414 -60)"/><ellipse cx="414" cy="-76.8" rx="5.9" ry="16.8" transform="rotate(45 414 -60)"/><ellipse cx="414" cy="-76.8" rx="5.9" ry="16.8" transform="rotate(90 414 -60)"/><ellipse cx="414" cy="-76.8" rx="5.9" ry="16.8" transform="rotate(135 414 -60)"/><ellipse cx="414" cy="-76.8" rx="5.9" ry="16.8" transform="rotate(180 414 -60)"/><ellipse cx="414" cy="-76.8" rx="5.9" ry="16.8" transform="rotate(225 414 -60)"/><ellipse cx="414" cy="-76.8" rx="5.9" ry="16.8" transform="rotate(270 414 -60)"/><ellipse cx="414" cy="-76.8" rx="5.9" ry="16.8" transform="rotate(315 414 -60)"/><circle cx="414" cy="-60" r="5.3"/></g><g transform="rotate(-0.2 590 -60)"><ellipse cx="590" cy="-76.7" rx="5.9" ry="16.7" transform="rotate(0 590 -60)"/><ellipse cx="590" cy="-76.7" rx="5.9" ry="16.7" transform="rotate(45 590 -60)"/><ellipse cx="590" cy="-76.7" rx="5.9" ry="16.7" transform="rotate(90 590 -60)"/><ellipse cx="590" cy="-76.7" rx="5.9" ry="16.7" transform="rotate(135 590 -60)"/><ellipse cx="590" cy="-76.7" rx="5.9" ry="16.7" transform="rotate(180 590 -60)"/><ellipse cx="590" cy="-76.7" rx="5.9" ry="16.7" transform="rotate(225 590 -60)"/><ellipse cx="590" cy="-76.7" rx="5.9" ry="16.7" transform="rotate(270 590 -60)"/><ellipse cx="590" cy="-76.7" rx="5.9" ry="16.7" transform="rotate(315 590 -60)"/><circle cx="590" cy="-60" r="5.2"/></g><g transform="rotate(0.3 766 -60)"><ellipse cx="766" cy="-76.3" rx="5.7" ry="16.3" transform="rotate(0 766 -60)"/><ellipse cx="766" cy="-76.3" rx="5.7" ry="16.3" transform="rotate(45 766 -60)"/><ellipse cx="766" cy="-76.3" rx="5.7" ry="16.3" transform="rotate(90 766 -60)"/><ellipse cx="766" cy="-76.3" rx="5.7" ry="16.3" transform="rotate(135 766 -60)"/><ellipse cx="766" cy="-76.3" rx="5.7" ry="16.3" transform="rotate(180 766 -60)"/><ellipse cx="766" cy="-76.3" rx="5.7" ry="16.3" transform="rotate(225 766 -60)"/><ellipse cx="766" cy="-76.3" rx="5.7" ry="16.3" transform="rotate(270 766 -60)"/><ellipse cx="766" cy="-76.3" rx="5.7" ry="16.3" transform="rotate(315 766 -60)"/><circle cx="766" cy="-60" r="5.1"/></g><g transform="rotate(-2.3 942 -60)"><ellipse cx="942" cy="-76.6" rx="5.9" ry="16.6" transform="rotate(0 942 -60)"/><ellipse cx="942" cy="-76.6" rx="5.9" ry="16.6" transform="rotate(45 942 -60)"/><ellipse cx="942" cy="-76.6" rx="5.9" ry="16.6" transform="rotate(90 942 -60)"/><ellipse cx="942" cy="-76.6" rx="5.9" ry="16.6" transform="rotate(135 942 -60)"/><ellipse cx="942" cy="-76.6" rx="5.9" ry="16.6" transform="rotate(180 942 -60)"/><ellipse cx="942" cy="-76.6" rx="5.9" ry="16.6" transform="rotate(225 942 -60)"/><ellipse cx="942" cy="-76.6" rx="5.9" ry="16.6" transform="rotate(270 942 -60)"/><ellipse cx="942" cy="-76.6" rx="5.9" ry="16.6" transform="rotate(315 942 -60)"/><circle cx="942" cy="-60" r="5.2"/></g><g transform="rotate(-2.0 1118 -60)"><ellipse cx="1118" cy="-74.9" rx="5.3" ry="14.9" transform="rotate(0 1118 -60)"/><ellipse cx="1118" cy="-74.9" rx="5.3" ry="14.9" transform="rotate(45 1118 -60)"/><ellipse cx="1118" cy="-74.9" rx="5.3" ry="14.9" transform="rotate(90 1118 -60)"/><ellipse cx="1118" cy="-74.9" rx="5.3" ry="14.9" transform="rotate(135 1118 -60)"/><ellipse cx="1118" cy="-74.9" rx="5.3" ry="14.9" transform="rotate(180 1118 -60)"/><ellipse cx="1118" cy="-74.9" rx="5.3" ry="14.9" transform="rotate(225 1118 -60)"/><ellipse cx="1118" cy="-74.9" rx="5.3" ry="14.9" transform="rotate(270 1118 -60)"/><ellipse cx="1118" cy="-74.9" rx="5.3" ry="14.9" transform="rotate(315 1118 -60)"/><circle cx="1118" cy="-60" r="4.7"/></g><g transform="rotate(-0.4 1294 -60)"><ellipse cx="1294" cy="-77.2" rx="6.1" ry="17.2" transform="rotate(0 1294 -60)"/><ellipse cx="1294" cy="-77.2" rx="6.1" ry="17.2" transform="rotate(45 1294 -60)"/><ellipse cx="1294" cy="-77.2" rx="6.1" ry="17.2" transform="rotate(90 1294 -60)"/><ellipse cx="1294" cy="-77.2" rx="6.1" ry="17.2" transform="rotate(135 1294 -60)"/><ellipse cx="1294" cy="-77.2" rx="6.1" ry="17.2" transform="rotate(180 1294 -60)"/><ellipse cx="1294" cy="-77.2" rx="6.1" ry="17.2" transform="rotate(225 1294 -60)"/><ellipse cx="1294" cy="-77.2" rx="6.1" ry="17.2" transform="rotate(270 1294 -60)"/><ellipse cx="1294" cy="-77.2" rx="6.1" ry="17.2" transform="rotate(315 1294 -60)"/><circle cx="1294" cy="-60" r="5.4"/></g><g transform="rotate(-0.8 1470 -60)"><ellipse cx="1470" cy="-74.9" rx="5.2" ry="14.9" transform="rotate(0 1470 -60)"/><ellipse cx="1470" cy="-74.9" rx="5.2" ry="14.9" transform="rotate(45 1470 -60)"/><ellipse cx="1470" cy="-74.9" rx="5.2" ry="14.9" transform="rotate(90 1470 -60)"/><ellipse cx="1470" cy="-74.9" rx="5.2" ry="14.9" transform="rotate(135 1470 -60)"/><ellipse cx="1470" cy="-74.9" rx="5.2" ry="14.9" transform="rotate(180 1470 -60)"/><ellipse cx="1470" cy="-74.9" rx="5.2" ry="14.9" transform="rotate(225 1470 -60)"/><ellipse cx="1470" cy="-74.9" rx="5.2" ry="14.9" transform="rotate(270 1470 -60)"/><ellipse cx="1470" cy="-74.9" rx="5.2" ry="14.9" transform="rotate(315 1470 -60)"/><circle cx="1470" cy="-60" r="4.7"/></g><g transform="rotate(2.6 -26 148)"><ellipse cx="-26" cy="132.3" rx="5.5" ry="15.7" transform="rotate(0 -26 148)"/><ellipse cx="-26" cy="132.3" rx="5.5" ry="15.7" transform="rotate(45 -26 148)"/><ellipse cx="-26" cy="132.3" rx="5.5" ry="15.7" transform="rotate(90 -26 148)"/><ellipse cx="-26" cy="132.3" rx="5.5" ry="15.7" transform="rotate(135 -26 148)"/><ellipse cx="-26" cy="132.3" rx="5.5" ry="15.7" transform="rotate(180 -26 148)"/><ellipse cx="-26" cy="132.3" rx="5.5" ry="15.7" transform="rotate(225 -26 148)"/><ellipse cx="-26" cy="132.3" rx="5.5" ry="15.7" transform="rotate(270 -26 148)"/><ellipse cx="-26" cy="132.3" rx="5.5" ry="15.7" transform="rotate(315 -26 148)"/><circle cx="-26" cy="148" r="4.9"/></g><g transform="rotate(2.5 150 148)"><ellipse cx="150" cy="133.2" rx="5.2" ry="14.8" transform="rotate(0 150 148)"/><ellipse cx="150" cy="133.2" rx="5.2" ry="14.8" transform="rotate(45 150 148)"/><ellipse cx="150" cy="133.2" rx="5.2" ry="14.8" transform="rotate(90 150 148)"/><ellipse cx="150" cy="133.2" rx="5.2" ry="14.8" transform="rotate(135 150 148)"/><ellipse cx="150" cy="133.2" rx="5.2" ry="14.8" transform="rotate(180 150 148)"/><ellipse cx="150" cy="133.2" rx="5.2" ry="14.8" transform="rotate(225 150 148)"/><ellipse cx="150" cy="133.2" rx="5.2" ry="14.8" transform="rotate(270 150 148)"/><ellipse cx="150" cy="133.2" rx="5.2" ry="14.8" transform="rotate(315 150 148)"/><circle cx="150" cy="148" r="4.7"/></g><g transform="rotate(0.8 326 148)"><ellipse cx="326" cy="131.8" rx="5.7" ry="16.2" transform="rotate(0 326 148)"/><ellipse cx="326" cy="131.8" rx="5.7" ry="16.2" transform="rotate(45 326 148)"/><ellipse cx="326" cy="131.8" rx="5.7" ry="16.2" transform="rotate(90 326 148)"/><ellipse cx="326" cy="131.8" rx="5.7" ry="16.2" transform="rotate(135 326 148)"/><ellipse cx="326" cy="131.8" rx="5.7" ry="16.2" transform="rotate(180 326 148)"/><ellipse cx="326" cy="131.8" rx="5.7" ry="16.2" transform="rotate(225 326 148)"/><ellipse cx="326" cy="131.8" rx="5.7" ry="16.2" transform="rotate(270 326 148)"/><ellipse cx="326" cy="131.8" rx="5.7" ry="16.2" transform="rotate(315 326 148)"/><circle cx="326" cy="148" r="5.1"/></g><g transform="rotate(-0.1 502 148)"><ellipse cx="502" cy="132.8" rx="5.3" ry="15.2" transform="rotate(0 502 148)"/><ellipse cx="502" cy="132.8" rx="5.3" ry="15.2" transform="rotate(45 502 148)"/><ellipse cx="502" cy="132.8" rx="5.3" ry="15.2" transform="rotate(90 502 148)"/><ellipse cx="502" cy="132.8" rx="5.3" ry="15.2" transform="rotate(135 502 148)"/><ellipse cx="502" cy="132.8" rx="5.3" ry="15.2" transform="rotate(180 502 148)"/><ellipse cx="502" cy="132.8" rx="5.3" ry="15.2" transform="rotate(225 502 148)"/><ellipse cx="502" cy="132.8" rx="5.3" ry="15.2" transform="rotate(270 502 148)"/><ellipse cx="502" cy="132.8" rx="5.3" ry="15.2" transform="rotate(315 502 148)"/><circle cx="502" cy="148" r="4.8"/></g><g transform="rotate(-1.3 678 148)"><ellipse cx="678" cy="133.3" rx="5.2" ry="14.7" transform="rotate(0 678 148)"/><ellipse cx="678" cy="133.3" rx="5.2" ry="14.7" transform="rotate(45 678 148)"/><ellipse cx="678" cy="133.3" rx="5.2" ry="14.7" transform="rotate(90 678 148)"/><ellipse cx="678" cy="133.3" rx="5.2" ry="14.7" transform="rotate(135 678 148)"/><ellipse cx="678" cy="133.3" rx="5.2" ry="14.7" transform="rotate(180 678 148)"/><ellipse cx="678" cy="133.3" rx="5.2" ry="14.7" transform="rotate(225 678 148)"/><ellipse cx="678" cy="133.3" rx="5.2" ry="14.7" transform="rotate(270 678 148)"/><ellipse cx="678" cy="133.3" rx="5.2" ry="14.7" transform="rotate(315 678 148)"/><circle cx="678" cy="148" r="4.6"/></g><g transform="rotate(1.5 854 148)"><ellipse cx="854" cy="132.7" rx="5.4" ry="15.3" transform="rotate(0 854 148)"/><ellipse cx="854" cy="132.7" rx="5.4" ry="15.3" transform="rotate(45 854 148)"/><ellipse cx="854" cy="132.7" rx="5.4" ry="15.3" transform="rotate(90 854 148)"/><ellipse cx="854" cy="132.7" rx="5.4" ry="15.3" transform="rotate(135 854 148)"/><ellipse cx="854" cy="132.7" rx="5.4" ry="15.3" transform="rotate(180 854 148)"/><ellipse cx="854" cy="132.7" rx="5.4" ry="15.3" transform="rotate(225 854 148)"/><ellipse cx="854" cy="132.7" rx="5.4" ry="15.3" transform="rotate(270 854 148)"/><ellipse cx="854" cy="132.7" rx="5.4" ry="15.3" transform="rotate(315 854 148)"/><circle cx="854" cy="148" r="4.8"/></g><g transform="rotate(1.4 1030 148)"><ellipse cx="1030" cy="133.3" rx="5.2" ry="14.7" transform="rotate(0 1030 148)"/><ellipse cx="1030" cy="133.3" rx="5.2" ry="14.7" transform="rotate(45 1030 148)"/><ellipse cx="1030" cy="133.3" rx="5.2" ry="14.7" transform="rotate(90 1030 148)"/><ellipse cx="1030" cy="133.3" rx="5.2" ry="14.7" transform="rotate(135 1030 148)"/><ellipse cx="1030" cy="133.3" rx="5.2" ry="14.7" transform="rotate(180 1030 148)"/><ellipse cx="1030" cy="133.3" rx="5.2" ry="14.7" transform="rotate(225 1030 148)"/><ellipse cx="1030" cy="133.3" rx="5.2" ry="14.7" transform="rotate(270 1030 148)"/><ellipse cx="1030" cy="133.3" rx="5.2" ry="14.7" transform="rotate(315 1030 148)"/><circle cx="1030" cy="148" r="4.6"/></g><g transform="rotate(0.1 1206 148)"><ellipse cx="1206" cy="133.1" rx="5.3" ry="14.9" transform="rotate(0 1206 148)"/><ellipse cx="1206" cy="133.1" rx="5.3" ry="14.9" transform="rotate(45 1206 148)"/><ellipse cx="1206" cy="133.1" rx="5.3" ry="14.9" transform="rotate(90 1206 148)"/><ellipse cx="1206" cy="133.1" rx="5.3" ry="14.9" transform="rotate(135 1206 148)"/><ellipse cx="1206" cy="133.1" rx="5.3" ry="14.9" transform="rotate(180 1206 148)"/><ellipse cx="1206" cy="133.1" rx="5.3" ry="14.9" transform="rotate(225 1206 148)"/><ellipse cx="1206" cy="133.1" rx="5.3" ry="14.9" transform="rotate(270 1206 148)"/><ellipse cx="1206" cy="133.1" rx="5.3" ry="14.9" transform="rotate(315 1206 148)"/><circle cx="1206" cy="148" r="4.7"/></g><g transform="rotate(2.6 1382 148)"><ellipse cx="1382" cy="132.9" rx="5.3" ry="15.1" transform="rotate(0 1382 148)"/><ellipse cx="1382" cy="132.9" rx="5.3" ry="15.1" transform="rotate(45 1382 148)"/><ellipse cx="1382" cy="132.9" rx="5.3" ry="15.1" transform="rotate(90 1382 148)"/><ellipse cx="1382" cy="132.9" rx="5.3" ry="15.1" transform="rotate(135 1382 148)"/><ellipse cx="1382" cy="132.9" rx="5.3" ry="15.1" transform="rotate(180 1382 148)"/><ellipse cx="1382" cy="132.9" rx="5.3" ry="15.1" transform="rotate(225 1382 148)"/><ellipse cx="1382" cy="132.9" rx="5.3" ry="15.1" transform="rotate(270 1382 148)"/><ellipse cx="1382" cy="132.9" rx="5.3" ry="15.1" transform="rotate(315 1382 148)"/><circle cx="1382" cy="148" r="4.8"/></g><g transform="rotate(1.2 1558 148)"><ellipse cx="1558" cy="131.7" rx="5.7" ry="16.3" transform="rotate(0 1558 148)"/><ellipse cx="1558" cy="131.7" rx="5.7" ry="16.3" transform="rotate(45 1558 148)"/><ellipse cx="1558" cy="131.7" rx="5.7" ry="16.3" transform="rotate(90 1558 148)"/><ellipse cx="1558" cy="131.7" rx="5.7" ry="16.3" transform="rotate(135 1558 148)"/><ellipse cx="1558" cy="131.7" rx="5.7" ry="16.3" transform="rotate(180 1558 148)"/><ellipse cx="1558" cy="131.7" rx="5.7" ry="16.3" transform="rotate(225 1558 148)"/><ellipse cx="1558" cy="131.7" rx="5.7" ry="16.3" transform="rotate(270 1558 148)"/><ellipse cx="1558" cy="131.7" rx="5.7" ry="16.3" transform="rotate(315 1558 148)"/><circle cx="1558" cy="148" r="5.1"/></g><g transform="rotate(-1.4 -114 356)"><ellipse cx="-114" cy="339.9" rx="5.7" ry="16.1" transform="rotate(0 -114 356)"/><ellipse cx="-114" cy="339.9" rx="5.7" ry="16.1" transform="rotate(45 -114 356)"/><ellipse cx="-114" cy="339.9" rx="5.7" ry="16.1" transform="rotate(90 -114 356)"/><ellipse cx="-114" cy="339.9" rx="5.7" ry="16.1" transform="rotate(135 -114 356)"/><ellipse cx="-114" cy="339.9" rx="5.7" ry="16.1" transform="rotate(180 -114 356)"/><ellipse cx="-114" cy="339.9" rx="5.7" ry="16.1" transform="rotate(225 -114 356)"/><ellipse cx="-114" cy="339.9" rx="5.7" ry="16.1" transform="rotate(270 -114 356)"/><ellipse cx="-114" cy="339.9" rx="5.7" ry="16.1" transform="rotate(315 -114 356)"/><circle cx="-114" cy="356" r="5.1"/></g><g transform="rotate(-1.9 62 356)"><ellipse cx="62" cy="339.7" rx="5.7" ry="16.3" transform="rotate(0 62 356)"/><ellipse cx="62" cy="339.7" rx="5.7" ry="16.3" transform="rotate(45 62 356)"/><ellipse cx="62" cy="339.7" rx="5.7" ry="16.3" transform="rotate(90 62 356)"/><ellipse cx="62" cy="339.7" rx="5.7" ry="16.3" transform="rotate(135 62 356)"/><ellipse cx="62" cy="339.7" rx="5.7" ry="16.3" transform="rotate(180 62 356)"/><ellipse cx="62" cy="339.7" rx="5.7" ry="16.3" transform="rotate(225 62 356)"/><ellipse cx="62" cy="339.7" rx="5.7" ry="16.3" transform="rotate(270 62 356)"/><ellipse cx="62" cy="339.7" rx="5.7" ry="16.3" transform="rotate(315 62 356)"/><circle cx="62" cy="356" r="5.1"/></g><g transform="rotate(0.9 238 356)"><ellipse cx="238" cy="339.1" rx="5.9" ry="16.9" transform="rotate(0 238 356)"/><ellipse cx="238" cy="339.1" rx="5.9" ry="16.9" transform="rotate(45 238 356)"/><ellipse cx="238" cy="339.1" rx="5.9" ry="16.9" transform="rotate(90 238 356)"/><ellipse cx="238" cy="339.1" rx="5.9" ry="16.9" transform="rotate(135 238 356)"/><ellipse cx="238" cy="339.1" rx="5.9" ry="16.9" transform="rotate(180 238 356)"/><ellipse cx="238" cy="339.1" rx="5.9" ry="16.9" transform="rotate(225 238 356)"/><ellipse cx="238" cy="339.1" rx="5.9" ry="16.9" transform="rotate(270 238 356)"/><ellipse cx="238" cy="339.1" rx="5.9" ry="16.9" transform="rotate(315 238 356)"/><circle cx="238" cy="356" r="5.3"/></g><g transform="rotate(-2.3 414 356)"><ellipse cx="414" cy="340.8" rx="5.3" ry="15.2" transform="rotate(0 414 356)"/><ellipse cx="414" cy="340.8" rx="5.3" ry="15.2" transform="rotate(45 414 356)"/><ellipse cx="414" cy="340.8" rx="5.3" ry="15.2" transform="rotate(90 414 356)"/><ellipse cx="414" cy="340.8" rx="5.3" ry="15.2" transform="rotate(135 414 356)"/><ellipse cx="414" cy="340.8" rx="5.3" ry="15.2" transform="rotate(180 414 356)"/><ellipse cx="414" cy="340.8" rx="5.3" ry="15.2" transform="rotate(225 414 356)"/><ellipse cx="414" cy="340.8" rx="5.3" ry="15.2" transform="rotate(270 414 356)"/><ellipse cx="414" cy="340.8" rx="5.3" ry="15.2" transform="rotate(315 414 356)"/><circle cx="414" cy="356" r="4.8"/></g><g transform="rotate(-0.8 590 356)"><ellipse cx="590" cy="341.0" rx="5.3" ry="15.0" transform="rotate(0 590 356)"/><ellipse cx="590" cy="341.0" rx="5.3" ry="15.0" transform="rotate(45 590 356)"/><ellipse cx="590" cy="341.0" rx="5.3" ry="15.0" transform="rotate(90 590 356)"/><ellipse cx="590" cy="341.0" rx="5.3" ry="15.0" transform="rotate(135 590 356)"/><ellipse cx="590" cy="341.0" rx="5.3" ry="15.0" transform="rotate(180 590 356)"/><ellipse cx="590" cy="341.0" rx="5.3" ry="15.0" transform="rotate(225 590 356)"/><ellipse cx="590" cy="341.0" rx="5.3" ry="15.0" transform="rotate(270 590 356)"/><ellipse cx="590" cy="341.0" rx="5.3" ry="15.0" transform="rotate(315 590 356)"/><circle cx="590" cy="356" r="4.7"/></g><g transform="rotate(-2.1 766 356)"><ellipse cx="766" cy="340.2" rx="5.6" ry="15.8" transform="rotate(0 766 356)"/><ellipse cx="766" cy="340.2" rx="5.6" ry="15.8" transform="rotate(45 766 356)"/><ellipse cx="766" cy="340.2" rx="5.6" ry="15.8" transform="rotate(90 766 356)"/><ellipse cx="766" cy="340.2" rx="5.6" ry="15.8" transform="rotate(135 766 356)"/><ellipse cx="766" cy="340.2" rx="5.6" ry="15.8" transform="rotate(180 766 356)"/><ellipse cx="766" cy="340.2" rx="5.6" ry="15.8" transform="rotate(225 766 356)"/><ellipse cx="766" cy="340.2" rx="5.6" ry="15.8" transform="rotate(270 766 356)"/><ellipse cx="766" cy="340.2" rx="5.6" ry="15.8" transform="rotate(315 766 356)"/><circle cx="766" cy="356" r="5.0"/></g><g transform="rotate(2.0 942 356)"><ellipse cx="942" cy="340.5" rx="5.4" ry="15.5" transform="rotate(0 942 356)"/><ellipse cx="942" cy="340.5" rx="5.4" ry="15.5" transform="rotate(45 942 356)"/><ellipse cx="942" cy="340.5" rx="5.4" ry="15.5" transform="rotate(90 942 356)"/><ellipse cx="942" cy="340.5" rx="5.4" ry="15.5" transform="rotate(135 942 356)"/><ellipse cx="942" cy="340.5" rx="5.4" ry="15.5" transform="rotate(180 942 356)"/><ellipse cx="942" cy="340.5" rx="5.4" ry="15.5" transform="rotate(225 942 356)"/><ellipse cx="942" cy="340.5" rx="5.4" ry="15.5" transform="rotate(270 942 356)"/><ellipse cx="942" cy="340.5" rx="5.4" ry="15.5" transform="rotate(315 942 356)"/><circle cx="942" cy="356" r="4.9"/></g><g transform="rotate(1.9 1118 356)"><ellipse cx="1118" cy="340.2" rx="5.6" ry="15.8" transform="rotate(0 1118 356)"/><ellipse cx="1118" cy="340.2" rx="5.6" ry="15.8" transform="rotate(45 1118 356)"/><ellipse cx="1118" cy="340.2" rx="5.6" ry="15.8" transform="rotate(90 1118 356)"/><ellipse cx="1118" cy="340.2" rx="5.6" ry="15.8" transform="rotate(135 1118 356)"/><ellipse cx="1118" cy="340.2" rx="5.6" ry="15.8" transform="rotate(180 1118 356)"/><ellipse cx="1118" cy="340.2" rx="5.6" ry="15.8" transform="rotate(225 1118 356)"/><ellipse cx="1118" cy="340.2" rx="5.6" ry="15.8" transform="rotate(270 1118 356)"/><ellipse cx="1118" cy="340.2" rx="5.6" ry="15.8" transform="rotate(315 1118 356)"/><circle cx="1118" cy="356" r="5.0"/></g><g transform="rotate(2.1 1294 356)"><ellipse cx="1294" cy="339.5" rx="5.8" ry="16.5" transform="rotate(0 1294 356)"/><ellipse cx="1294" cy="339.5" rx="5.8" ry="16.5" transform="rotate(45 1294 356)"/><ellipse cx="1294" cy="339.5" rx="5.8" ry="16.5" transform="rotate(90 1294 356)"/><ellipse cx="1294" cy="339.5" rx="5.8" ry="16.5" transform="rotate(135 1294 356)"/><ellipse cx="1294" cy="339.5" rx="5.8" ry="16.5" transform="rotate(180 1294 356)"/><ellipse cx="1294" cy="339.5" rx="5.8" ry="16.5" transform="rotate(225 1294 356)"/><ellipse cx="1294" cy="339.5" rx="5.8" ry="16.5" transform="rotate(270 1294 356)"/><ellipse cx="1294" cy="339.5" rx="5.8" ry="16.5" transform="rotate(315 1294 356)"/><circle cx="1294" cy="356" r="5.2"/></g><g transform="rotate(0.9 1470 356)"><ellipse cx="1470" cy="340.7" rx="5.4" ry="15.3" transform="rotate(0 1470 356)"/><ellipse cx="1470" cy="340.7" rx="5.4" ry="15.3" transform="rotate(45 1470 356)"/><ellipse cx="1470" cy="340.7" rx="5.4" ry="15.3" transform="rotate(90 1470 356)"/><ellipse cx="1470" cy="340.7" rx="5.4" ry="15.3" transform="rotate(135 1470 356)"/><ellipse cx="1470" cy="340.7" rx="5.4" ry="15.3" transform="rotate(180 1470 356)"/><ellipse cx="1470" cy="340.7" rx="5.4" ry="15.3" transform="rotate(225 1470 356)"/><ellipse cx="1470" cy="340.7" rx="5.4" ry="15.3" transform="rotate(270 1470 356)"/><ellipse cx="1470" cy="340.7" rx="5.4" ry="15.3" transform="rotate(315 1470 356)"/><circle cx="1470" cy="356" r="4.8"/></g><g transform="rotate(-1.0 -26 564)"><ellipse cx="-26" cy="546.9" rx="6.0" ry="17.1" transform="rotate(0 -26 564)"/><ellipse cx="-26" cy="546.9" rx="6.0" ry="17.1" transform="rotate(45 -26 564)"/><ellipse cx="-26" cy="546.9" rx="6.0" ry="17.1" transform="rotate(90 -26 564)"/><ellipse cx="-26" cy="546.9" rx="6.0" ry="17.1" transform="rotate(135 -26 564)"/><ellipse cx="-26" cy="546.9" rx="6.0" ry="17.1" transform="rotate(180 -26 564)"/><ellipse cx="-26" cy="546.9" rx="6.0" ry="17.1" transform="rotate(225 -26 564)"/><ellipse cx="-26" cy="546.9" rx="6.0" ry="17.1" transform="rotate(270 -26 564)"/><ellipse cx="-26" cy="546.9" rx="6.0" ry="17.1" transform="rotate(315 -26 564)"/><circle cx="-26" cy="564" r="5.4"/></g><g transform="rotate(-0.1 150 564)"><ellipse cx="150" cy="547.9" rx="5.7" ry="16.1" transform="rotate(0 150 564)"/><ellipse cx="150" cy="547.9" rx="5.7" ry="16.1" transform="rotate(45 150 564)"/><ellipse cx="150" cy="547.9" rx="5.7" ry="16.1" transform="rotate(90 150 564)"/><ellipse cx="150" cy="547.9" rx="5.7" ry="16.1" transform="rotate(135 150 564)"/><ellipse cx="150" cy="547.9" rx="5.7" ry="16.1" transform="rotate(180 150 564)"/><ellipse cx="150" cy="547.9" rx="5.7" ry="16.1" transform="rotate(225 150 564)"/><ellipse cx="150" cy="547.9" rx="5.7" ry="16.1" transform="rotate(270 150 564)"/><ellipse cx="150" cy="547.9" rx="5.7" ry="16.1" transform="rotate(315 150 564)"/><circle cx="150" cy="564" r="5.1"/></g><g transform="rotate(-2.6 326 564)"><ellipse cx="326" cy="547.3" rx="5.9" ry="16.7" transform="rotate(0 326 564)"/><ellipse cx="326" cy="547.3" rx="5.9" ry="16.7" transform="rotate(45 326 564)"/><ellipse cx="326" cy="547.3" rx="5.9" ry="16.7" transform="rotate(90 326 564)"/><ellipse cx="326" cy="547.3" rx="5.9" ry="16.7" transform="rotate(135 326 564)"/><ellipse cx="326" cy="547.3" rx="5.9" ry="16.7" transform="rotate(180 326 564)"/><ellipse cx="326" cy="547.3" rx="5.9" ry="16.7" transform="rotate(225 326 564)"/><ellipse cx="326" cy="547.3" rx="5.9" ry="16.7" transform="rotate(270 326 564)"/><ellipse cx="326" cy="547.3" rx="5.9" ry="16.7" transform="rotate(315 326 564)"/><circle cx="326" cy="564" r="5.3"/></g><g transform="rotate(0.6 502 564)"><ellipse cx="502" cy="547.0" rx="6.0" ry="17.0" transform="rotate(0 502 564)"/><ellipse cx="502" cy="547.0" rx="6.0" ry="17.0" transform="rotate(45 502 564)"/><ellipse cx="502" cy="547.0" rx="6.0" ry="17.0" transform="rotate(90 502 564)"/><ellipse cx="502" cy="547.0" rx="6.0" ry="17.0" transform="rotate(135 502 564)"/><ellipse cx="502" cy="547.0" rx="6.0" ry="17.0" transform="rotate(180 502 564)"/><ellipse cx="502" cy="547.0" rx="6.0" ry="17.0" transform="rotate(225 502 564)"/><ellipse cx="502" cy="547.0" rx="6.0" ry="17.0" transform="rotate(270 502 564)"/><ellipse cx="502" cy="547.0" rx="6.0" ry="17.0" transform="rotate(315 502 564)"/><circle cx="502" cy="564" r="5.3"/></g><g transform="rotate(-0.7 678 564)"><ellipse cx="678" cy="549.1" rx="5.3" ry="14.9" transform="rotate(0 678 564)"/><ellipse cx="678" cy="549.1" rx="5.3" ry="14.9" transform="rotate(45 678 564)"/><ellipse cx="678" cy="549.1" rx="5.3" ry="14.9" transform="rotate(90 678 564)"/><ellipse cx="678" cy="549.1" rx="5.3" ry="14.9" transform="rotate(135 678 564)"/><ellipse cx="678" cy="549.1" rx="5.3" ry="14.9" transform="rotate(180 678 564)"/><ellipse cx="678" cy="549.1" rx="5.3" ry="14.9" transform="rotate(225 678 564)"/><ellipse cx="678" cy="549.1" rx="5.3" ry="14.9" transform="rotate(270 678 564)"/><ellipse cx="678" cy="549.1" rx="5.3" ry="14.9" transform="rotate(315 678 564)"/><circle cx="678" cy="564" r="4.7"/></g><g transform="rotate(0.8 854 564)"><ellipse cx="854" cy="547.1" rx="5.9" ry="16.9" transform="rotate(0 854 564)"/><ellipse cx="854" cy="547.1" rx="5.9" ry="16.9" transform="rotate(45 854 564)"/><ellipse cx="854" cy="547.1" rx="5.9" ry="16.9" transform="rotate(90 854 564)"/><ellipse cx="854" cy="547.1" rx="5.9" ry="16.9" transform="rotate(135 854 564)"/><ellipse cx="854" cy="547.1" rx="5.9" ry="16.9" transform="rotate(180 854 564)"/><ellipse cx="854" cy="547.1" rx="5.9" ry="16.9" transform="rotate(225 854 564)"/><ellipse cx="854" cy="547.1" rx="5.9" ry="16.9" transform="rotate(270 854 564)"/><ellipse cx="854" cy="547.1" rx="5.9" ry="16.9" transform="rotate(315 854 564)"/><circle cx="854" cy="564" r="5.3"/></g><g transform="rotate(0.3 1030 564)"><ellipse cx="1030" cy="549.4" rx="5.1" ry="14.6" transform="rotate(0 1030 564)"/><ellipse cx="1030" cy="549.4" rx="5.1" ry="14.6" transform="rotate(45 1030 564)"/><ellipse cx="1030" cy="549.4" rx="5.1" ry="14.6" transform="rotate(90 1030 564)"/><ellipse cx="1030" cy="549.4" rx="5.1" ry="14.6" transform="rotate(135 1030 564)"/><ellipse cx="1030" cy="549.4" rx="5.1" ry="14.6" transform="rotate(180 1030 564)"/><ellipse cx="1030" cy="549.4" rx="5.1" ry="14.6" transform="rotate(225 1030 564)"/><ellipse cx="1030" cy="549.4" rx="5.1" ry="14.6" transform="rotate(270 1030 564)"/><ellipse cx="1030" cy="549.4" rx="5.1" ry="14.6" transform="rotate(315 1030 564)"/><circle cx="1030" cy="564" r="4.6"/></g><g transform="rotate(1.2 1206 564)"><ellipse cx="1206" cy="548.0" rx="5.6" ry="16.0" transform="rotate(0 1206 564)"/><ellipse cx="1206" cy="548.0" rx="5.6" ry="16.0" transform="rotate(45 1206 564)"/><ellipse cx="1206" cy="548.0" rx="5.6" ry="16.0" transform="rotate(90 1206 564)"/><ellipse cx="1206" cy="548.0" rx="5.6" ry="16.0" transform="rotate(135 1206 564)"/><ellipse cx="1206" cy="548.0" rx="5.6" ry="16.0" transform="rotate(180 1206 564)"/><ellipse cx="1206" cy="548.0" rx="5.6" ry="16.0" transform="rotate(225 1206 564)"/><ellipse cx="1206" cy="548.0" rx="5.6" ry="16.0" transform="rotate(270 1206 564)"/><ellipse cx="1206" cy="548.0" rx="5.6" ry="16.0" transform="rotate(315 1206 564)"/><circle cx="1206" cy="564" r="5.0"/></g><g transform="rotate(0.6 1382 564)"><ellipse cx="1382" cy="548.2" rx="5.6" ry="15.8" transform="rotate(0 1382 564)"/><ellipse cx="1382" cy="548.2" rx="5.6" ry="15.8" transform="rotate(45 1382 564)"/><ellipse cx="1382" cy="548.2" rx="5.6" ry="15.8" transform="rotate(90 1382 564)"/><ellipse cx="1382" cy="548.2" rx="5.6" ry="15.8" transform="rotate(135 1382 564)"/><ellipse cx="1382" cy="548.2" rx="5.6" ry="15.8" transform="rotate(180 1382 564)"/><ellipse cx="1382" cy="548.2" rx="5.6" ry="15.8" transform="rotate(225 1382 564)"/><ellipse cx="1382" cy="548.2" rx="5.6" ry="15.8" transform="rotate(270 1382 564)"/><ellipse cx="1382" cy="548.2" rx="5.6" ry="15.8" transform="rotate(315 1382 564)"/><circle cx="1382" cy="564" r="5.0"/></g><g transform="rotate(0.6 1558 564)"><ellipse cx="1558" cy="547.3" rx="5.9" ry="16.7" transform="rotate(0 1558 564)"/><ellipse cx="1558" cy="547.3" rx="5.9" ry="16.7" transform="rotate(45 1558 564)"/><ellipse cx="1558" cy="547.3" rx="5.9" ry="16.7" transform="rotate(90 1558 564)"/><ellipse cx="1558" cy="547.3" rx="5.9" ry="16.7" transform="rotate(135 1558 564)"/><ellipse cx="1558" cy="547.3" rx="5.9" ry="16.7" transform="rotate(180 1558 564)"/><ellipse cx="1558" cy="547.3" rx="5.9" ry="16.7" transform="rotate(225 1558 564)"/><ellipse cx="1558" cy="547.3" rx="5.9" ry="16.7" transform="rotate(270 1558 564)"/><ellipse cx="1558" cy="547.3" rx="5.9" ry="16.7" transform="rotate(315 1558 564)"/><circle cx="1558" cy="564" r="5.3"/></g><g transform="rotate(2.4 -114 772)"><ellipse cx="-114" cy="755.6" rx="5.8" ry="16.4" transform="rotate(0 -114 772)"/><ellipse cx="-114" cy="755.6" rx="5.8" ry="16.4" transform="rotate(45 -114 772)"/><ellipse cx="-114" cy="755.6" rx="5.8" ry="16.4" transform="rotate(90 -114 772)"/><ellipse cx="-114" cy="755.6" rx="5.8" ry="16.4" transform="rotate(135 -114 772)"/><ellipse cx="-114" cy="755.6" rx="5.8" ry="16.4" transform="rotate(180 -114 772)"/><ellipse cx="-114" cy="755.6" rx="5.8" ry="16.4" transform="rotate(225 -114 772)"/><ellipse cx="-114" cy="755.6" rx="5.8" ry="16.4" transform="rotate(270 -114 772)"/><ellipse cx="-114" cy="755.6" rx="5.8" ry="16.4" transform="rotate(315 -114 772)"/><circle cx="-114" cy="772" r="5.2"/></g><g transform="rotate(-1.4 62 772)"><ellipse cx="62" cy="757.4" rx="5.1" ry="14.6" transform="rotate(0 62 772)"/><ellipse cx="62" cy="757.4" rx="5.1" ry="14.6" transform="rotate(45 62 772)"/><ellipse cx="62" cy="757.4" rx="5.1" ry="14.6" transform="rotate(90 62 772)"/><ellipse cx="62" cy="757.4" rx="5.1" ry="14.6" transform="rotate(135 62 772)"/><ellipse cx="62" cy="757.4" rx="5.1" ry="14.6" transform="rotate(180 62 772)"/><ellipse cx="62" cy="757.4" rx="5.1" ry="14.6" transform="rotate(225 62 772)"/><ellipse cx="62" cy="757.4" rx="5.1" ry="14.6" transform="rotate(270 62 772)"/><ellipse cx="62" cy="757.4" rx="5.1" ry="14.6" transform="rotate(315 62 772)"/><circle cx="62" cy="772" r="4.6"/></g><g transform="rotate(-0.4 238 772)"><ellipse cx="238" cy="756.8" rx="5.3" ry="15.2" transform="rotate(0 238 772)"/><ellipse cx="238" cy="756.8" rx="5.3" ry="15.2" transform="rotate(45 238 772)"/><ellipse cx="238" cy="756.8" rx="5.3" ry="15.2" transform="rotate(90 238 772)"/><ellipse cx="238" cy="756.8" rx="5.3" ry="15.2" transform="rotate(135 238 772)"/><ellipse cx="238" cy="756.8" rx="5.3" ry="15.2" transform="rotate(180 238 772)"/><ellipse cx="238" cy="756.8" rx="5.3" ry="15.2" transform="rotate(225 238 772)"/><ellipse cx="238" cy="756.8" rx="5.3" ry="15.2" transform="rotate(270 238 772)"/><ellipse cx="238" cy="756.8" rx="5.3" ry="15.2" transform="rotate(315 238 772)"/><circle cx="238" cy="772" r="4.8"/></g><g transform="rotate(2.2 414 772)"><ellipse cx="414" cy="755.6" rx="5.8" ry="16.4" transform="rotate(0 414 772)"/><ellipse cx="414" cy="755.6" rx="5.8" ry="16.4" transform="rotate(45 414 772)"/><ellipse cx="414" cy="755.6" rx="5.8" ry="16.4" transform="rotate(90 414 772)"/><ellipse cx="414" cy="755.6" rx="5.8" ry="16.4" transform="rotate(135 414 772)"/><ellipse cx="414" cy="755.6" rx="5.8" ry="16.4" transform="rotate(180 414 772)"/><ellipse cx="414" cy="755.6" rx="5.8" ry="16.4" transform="rotate(225 414 772)"/><ellipse cx="414" cy="755.6" rx="5.8" ry="16.4" transform="rotate(270 414 772)"/><ellipse cx="414" cy="755.6" rx="5.8" ry="16.4" transform="rotate(315 414 772)"/><circle cx="414" cy="772" r="5.2"/></g><g transform="rotate(2.6 590 772)"><ellipse cx="590" cy="755.2" rx="5.9" ry="16.8" transform="rotate(0 590 772)"/><ellipse cx="590" cy="755.2" rx="5.9" ry="16.8" transform="rotate(45 590 772)"/><ellipse cx="590" cy="755.2" rx="5.9" ry="16.8" transform="rotate(90 590 772)"/><ellipse cx="590" cy="755.2" rx="5.9" ry="16.8" transform="rotate(135 590 772)"/><ellipse cx="590" cy="755.2" rx="5.9" ry="16.8" transform="rotate(180 590 772)"/><ellipse cx="590" cy="755.2" rx="5.9" ry="16.8" transform="rotate(225 590 772)"/><ellipse cx="590" cy="755.2" rx="5.9" ry="16.8" transform="rotate(270 590 772)"/><ellipse cx="590" cy="755.2" rx="5.9" ry="16.8" transform="rotate(315 590 772)"/><circle cx="590" cy="772" r="5.3"/></g><g transform="rotate(-0.6 766 772)"><ellipse cx="766" cy="755.3" rx="5.9" ry="16.7" transform="rotate(0 766 772)"/><ellipse cx="766" cy="755.3" rx="5.9" ry="16.7" transform="rotate(45 766 772)"/><ellipse cx="766" cy="755.3" rx="5.9" ry="16.7" transform="rotate(90 766 772)"/><ellipse cx="766" cy="755.3" rx="5.9" ry="16.7" transform="rotate(135 766 772)"/><ellipse cx="766" cy="755.3" rx="5.9" ry="16.7" transform="rotate(180 766 772)"/><ellipse cx="766" cy="755.3" rx="5.9" ry="16.7" transform="rotate(225 766 772)"/><ellipse cx="766" cy="755.3" rx="5.9" ry="16.7" transform="rotate(270 766 772)"/><ellipse cx="766" cy="755.3" rx="5.9" ry="16.7" transform="rotate(315 766 772)"/><circle cx="766" cy="772" r="5.2"/></g><g transform="rotate(-2.1 942 772)"><ellipse cx="942" cy="756.3" rx="5.5" ry="15.7" transform="rotate(0 942 772)"/><ellipse cx="942" cy="756.3" rx="5.5" ry="15.7" transform="rotate(45 942 772)"/><ellipse cx="942" cy="756.3" rx="5.5" ry="15.7" transform="rotate(90 942 772)"/><ellipse cx="942" cy="756.3" rx="5.5" ry="15.7" transform="rotate(135 942 772)"/><ellipse cx="942" cy="756.3" rx="5.5" ry="15.7" transform="rotate(180 942 772)"/><ellipse cx="942" cy="756.3" rx="5.5" ry="15.7" transform="rotate(225 942 772)"/><ellipse cx="942" cy="756.3" rx="5.5" ry="15.7" transform="rotate(270 942 772)"/><ellipse cx="942" cy="756.3" rx="5.5" ry="15.7" transform="rotate(315 942 772)"/><circle cx="942" cy="772" r="4.9"/></g><g transform="rotate(1.7 1118 772)"><ellipse cx="1118" cy="755.1" rx="5.9" ry="16.9" transform="rotate(0 1118 772)"/><ellipse cx="1118" cy="755.1" rx="5.9" ry="16.9" transform="rotate(45 1118 772)"/><ellipse cx="1118" cy="755.1" rx="5.9" ry="16.9" transform="rotate(90 1118 772)"/><ellipse cx="1118" cy="755.1" rx="5.9" ry="16.9" transform="rotate(135 1118 772)"/><ellipse cx="1118" cy="755.1" rx="5.9" ry="16.9" transform="rotate(180 1118 772)"/><ellipse cx="1118" cy="755.1" rx="5.9" ry="16.9" transform="rotate(225 1118 772)"/><ellipse cx="1118" cy="755.1" rx="5.9" ry="16.9" transform="rotate(270 1118 772)"/><ellipse cx="1118" cy="755.1" rx="5.9" ry="16.9" transform="rotate(315 1118 772)"/><circle cx="1118" cy="772" r="5.3"/></g><g transform="rotate(2.3 1294 772)"><ellipse cx="1294" cy="755.6" rx="5.8" ry="16.4" transform="rotate(0 1294 772)"/><ellipse cx="1294" cy="755.6" rx="5.8" ry="16.4" transform="rotate(45 1294 772)"/><ellipse cx="1294" cy="755.6" rx="5.8" ry="16.4" transform="rotate(90 1294 772)"/><ellipse cx="1294" cy="755.6" rx="5.8" ry="16.4" transform="rotate(135 1294 772)"/><ellipse cx="1294" cy="755.6" rx="5.8" ry="16.4" transform="rotate(180 1294 772)"/><ellipse cx="1294" cy="755.6" rx="5.8" ry="16.4" transform="rotate(225 1294 772)"/><ellipse cx="1294" cy="755.6" rx="5.8" ry="16.4" transform="rotate(270 1294 772)"/><ellipse cx="1294" cy="755.6" rx="5.8" ry="16.4" transform="rotate(315 1294 772)"/><circle cx="1294" cy="772" r="5.2"/></g><g transform="rotate(1.1 1470 772)"><ellipse cx="1470" cy="755.7" rx="5.7" ry="16.3" transform="rotate(0 1470 772)"/><ellipse cx="1470" cy="755.7" rx="5.7" ry="16.3" transform="rotate(45 1470 772)"/><ellipse cx="1470" cy="755.7" rx="5.7" ry="16.3" transform="rotate(90 1470 772)"/><ellipse cx="1470" cy="755.7" rx="5.7" ry="16.3" transform="rotate(135 1470 772)"/><ellipse cx="1470" cy="755.7" rx="5.7" ry="16.3" transform="rotate(180 1470 772)"/><ellipse cx="1470" cy="755.7" rx="5.7" ry="16.3" transform="rotate(225 1470 772)"/><ellipse cx="1470" cy="755.7" rx="5.7" ry="16.3" transform="rotate(270 1470 772)"/><ellipse cx="1470" cy="755.7" rx="5.7" ry="16.3" transform="rotate(315 1470 772)"/><circle cx="1470" cy="772" r="5.1"/></g></g><rect x="0" y="1000" width="1800" height="400" fill="#2B0A14"/><rect x="0" y="1000" width="1800" height="400" fill="url(#weave)"/><g fill="url(#zari)" color="#D4B375"><rect x="0" y="1026.0" width="1800" height="7" opacity="0.95"/><rect x="0" y="1048.0" width="1800" height="2" opacity="0.62"/><rect x="0" y="1065.0" width="1800" height="2" opacity="0.62"/><rect x="0" y="1082.0" width="1800" height="11" opacity="0.95"/><rect x="0" y="1108.0" width="1800" height="2" opacity="0.62"/><rect x="0" y="1125.0" width="1800" height="2" opacity="0.62"/><rect x="0" y="1142.0" width="1800" height="7" opacity="0.95"/><rect x="0" y="1164.0" width="1800" height="3" opacity="0.62"/><rect x="0" y="1182.0" width="1800" height="16" opacity="0.95"/><rect x="0" y="1213.0" width="1800" height="3" opacity="0.62"/><rect x="0" y="1231.0" width="1800" height="5" opacity="0.62"/><g opacity="0.9"><ellipse cx="81.81818181818181" cy="1276.2" rx="8.4" ry="23.8" transform="rotate(0 81.81818181818181 1300)"/><ellipse cx="81.81818181818181" cy="1276.2" rx="8.4" ry="23.8" transform="rotate(45 81.81818181818181 1300)"/><ellipse cx="81.81818181818181" cy="1276.2" rx="8.4" ry="23.8" transform="rotate(90 81.81818181818181 1300)"/><ellipse cx="81.81818181818181" cy="1276.2" rx="8.4" ry="23.8" transform="rotate(135 81.81818181818181 1300)"/><ellipse cx="81.81818181818181" cy="1276.2" rx="8.4" ry="23.8" transform="rotate(180 81.81818181818181 1300)"/><ellipse cx="81.81818181818181" cy="1276.2" rx="8.4" ry="23.8" transform="rotate(225 81.81818181818181 1300)"/><ellipse cx="81.81818181818181" cy="1276.2" rx="8.4" ry="23.8" transform="rotate(270 81.81818181818181 1300)"/><ellipse cx="81.81818181818181" cy="1276.2" rx="8.4" ry="23.8" transform="rotate(315 81.81818181818181 1300)"/><circle cx="81.81818181818181" cy="1300" r="7.5"/></g><g opacity="0.9"><ellipse cx="245.45454545454544" cy="1276.2" rx="8.4" ry="23.8" transform="rotate(0 245.45454545454544 1300)"/><ellipse cx="245.45454545454544" cy="1276.2" rx="8.4" ry="23.8" transform="rotate(45 245.45454545454544 1300)"/><ellipse cx="245.45454545454544" cy="1276.2" rx="8.4" ry="23.8" transform="rotate(90 245.45454545454544 1300)"/><ellipse cx="245.45454545454544" cy="1276.2" rx="8.4" ry="23.8" transform="rotate(135 245.45454545454544 1300)"/><ellipse cx="245.45454545454544" cy="1276.2" rx="8.4" ry="23.8" transform="rotate(180 245.45454545454544 1300)"/><ellipse cx="245.45454545454544" cy="1276.2" rx="8.4" ry="23.8" transform="rotate(225 245.45454545454544 1300)"/><ellipse cx="245.45454545454544" cy="1276.2" rx="8.4" ry="23.8" transform="rotate(270 245.45454545454544 1300)"/><ellipse cx="245.45454545454544" cy="1276.2" rx="8.4" ry="23.8" transform="rotate(315 245.45454545454544 1300)"/><circle cx="245.45454545454544" cy="1300" r="7.5"/></g><g opacity="0.9"><ellipse cx="409.09090909090907" cy="1276.2" rx="8.4" ry="23.8" transform="rotate(0 409.09090909090907 1300)"/><ellipse cx="409.09090909090907" cy="1276.2" rx="8.4" ry="23.8" transform="rotate(45 409.09090909090907 1300)"/><ellipse cx="409.09090909090907" cy="1276.2" rx="8.4" ry="23.8" transform="rotate(90 409.09090909090907 1300)"/><ellipse cx="409.09090909090907" cy="1276.2" rx="8.4" ry="23.8" transform="rotate(135 409.09090909090907 1300)"/><ellipse cx="409.09090909090907" cy="1276.2" rx="8.4" ry="23.8" transform="rotate(180 409.09090909090907 1300)"/><ellipse cx="409.09090909090907" cy="1276.2" rx="8.4" ry="23.8" transform="rotate(225 409.09090909090907 1300)"/><ellipse cx="409.09090909090907" cy="1276.2" rx="8.4" ry="23.8" transform="rotate(270 409.09090909090907 1300)"/><ellipse cx="409.09090909090907" cy="1276.2" rx="8.4" ry="23.8" transform="rotate(315 409.09090909090907 1300)"/><circle cx="409.09090909090907" cy="1300" r="7.5"/></g><g opacity="0.9"><ellipse cx="572.7272727272727" cy="1276.2" rx="8.4" ry="23.8" transform="rotate(0 572.7272727272727 1300)"/><ellipse cx="572.7272727272727" cy="1276.2" rx="8.4" ry="23.8" transform="rotate(45 572.7272727272727 1300)"/><ellipse cx="572.7272727272727" cy="1276.2" rx="8.4" ry="23.8" transform="rotate(90 572.7272727272727 1300)"/><ellipse cx="572.7272727272727" cy="1276.2" rx="8.4" ry="23.8" transform="rotate(135 572.7272727272727 1300)"/><ellipse cx="572.7272727272727" cy="1276.2" rx="8.4" ry="23.8" transform="rotate(180 572.7272727272727 1300)"/><ellipse cx="572.7272727272727" cy="1276.2" rx="8.4" ry="23.8" transform="rotate(225 572.7272727272727 1300)"/><ellipse cx="572.7272727272727" cy="1276.2" rx="8.4" ry="23.8" transform="rotate(270 572.7272727272727 1300)"/><ellipse cx="572.7272727272727" cy="1276.2" rx="8.4" ry="23.8" transform="rotate(315 572.7272727272727 1300)"/><circle cx="572.7272727272727" cy="1300" r="7.5"/></g><g opacity="0.9"><ellipse cx="736.3636363636363" cy="1276.2" rx="8.4" ry="23.8" transform="rotate(0 736.3636363636363 1300)"/><ellipse cx="736.3636363636363" cy="1276.2" rx="8.4" ry="23.8" transform="rotate(45 736.3636363636363 1300)"/><ellipse cx="736.3636363636363" cy="1276.2" rx="8.4" ry="23.8" transform="rotate(90 736.3636363636363 1300)"/><ellipse cx="736.3636363636363" cy="1276.2" rx="8.4" ry="23.8" transform="rotate(135 736.3636363636363 1300)"/><ellipse cx="736.3636363636363" cy="1276.2" rx="8.4" ry="23.8" transform="rotate(180 736.3636363636363 1300)"/><ellipse cx="736.3636363636363" cy="1276.2" rx="8.4" ry="23.8" transform="rotate(225 736.3636363636363 1300)"/><ellipse cx="736.3636363636363" cy="1276.2" rx="8.4" ry="23.8" transform="rotate(270 736.3636363636363 1300)"/><ellipse cx="736.3636363636363" cy="1276.2" rx="8.4" ry="23.8" transform="rotate(315 736.3636363636363 1300)"/><circle cx="736.3636363636363" cy="1300" r="7.5"/></g><g opacity="0.9"><ellipse cx="900" cy="1276.2" rx="8.4" ry="23.8" transform="rotate(0 900 1300)"/><ellipse cx="900" cy="1276.2" rx="8.4" ry="23.8" transform="rotate(45 900 1300)"/><ellipse cx="900" cy="1276.2" rx="8.4" ry="23.8" transform="rotate(90 900 1300)"/><ellipse cx="900" cy="1276.2" rx="8.4" ry="23.8" transform="rotate(135 900 1300)"/><ellipse cx="900" cy="1276.2" rx="8.4" ry="23.8" transform="rotate(180 900 1300)"/><ellipse cx="900" cy="1276.2" rx="8.4" ry="23.8" transform="rotate(225 900 1300)"/><ellipse cx="900" cy="1276.2" rx="8.4" ry="23.8" transform="rotate(270 900 1300)"/><ellipse cx="900" cy="1276.2" rx="8.4" ry="23.8" transform="rotate(315 900 1300)"/><circle cx="900" cy="1300" r="7.5"/></g><g opacity="0.9"><ellipse cx="1063.6363636363635" cy="1276.2" rx="8.4" ry="23.8" transform="rotate(0 1063.6363636363635 1300)"/><ellipse cx="1063.6363636363635" cy="1276.2" rx="8.4" ry="23.8" transform="rotate(45 1063.6363636363635 1300)"/><ellipse cx="1063.6363636363635" cy="1276.2" rx="8.4" ry="23.8" transform="rotate(90 1063.6363636363635 1300)"/><ellipse cx="1063.6363636363635" cy="1276.2" rx="8.4" ry="23.8" transform="rotate(135 1063.6363636363635 1300)"/><ellipse cx="1063.6363636363635" cy="1276.2" rx="8.4" ry="23.8" transform="rotate(180 1063.6363636363635 1300)"/><ellipse cx="1063.6363636363635" cy="1276.2" rx="8.4" ry="23.8" transform="rotate(225 1063.6363636363635 1300)"/><ellipse cx="1063.6363636363635" cy="1276.2" rx="8.4" ry="23.8" transform="rotate(270 1063.6363636363635 1300)"/><ellipse cx="1063.6363636363635" cy="1276.2" rx="8.4" ry="23.8" transform="rotate(315 1063.6363636363635 1300)"/><circle cx="1063.6363636363635" cy="1300" r="7.5"/></g><g opacity="0.9"><ellipse cx="1227.2727272727273" cy="1276.2" rx="8.4" ry="23.8" transform="rotate(0 1227.2727272727273 1300)"/><ellipse cx="1227.2727272727273" cy="1276.2" rx="8.4" ry="23.8" transform="rotate(45 1227.2727272727273 1300)"/><ellipse cx="1227.2727272727273" cy="1276.2" rx="8.4" ry="23.8" transform="rotate(90 1227.2727272727273 1300)"/><ellipse cx="1227.2727272727273" cy="1276.2" rx="8.4" ry="23.8" transform="rotate(135 1227.2727272727273 1300)"/><ellipse cx="1227.2727272727273" cy="1276.2" rx="8.4" ry="23.8" transform="rotate(180 1227.2727272727273 1300)"/><ellipse cx="1227.2727272727273" cy="1276.2" rx="8.4" ry="23.8" transform="rotate(225 1227.2727272727273 1300)"/><ellipse cx="1227.2727272727273" cy="1276.2" rx="8.4" ry="23.8" transform="rotate(270 1227.2727272727273 1300)"/><ellipse cx="1227.2727272727273" cy="1276.2" rx="8.4" ry="23.8" transform="rotate(315 1227.2727272727273 1300)"/><circle cx="1227.2727272727273" cy="1300" r="7.5"/></g><g opacity="0.9"><ellipse cx="1390.9090909090908" cy="1276.2" rx="8.4" ry="23.8" transform="rotate(0 1390.9090909090908 1300)"/><ellipse cx="1390.9090909090908" cy="1276.2" rx="8.4" ry="23.8" transform="rotate(45 1390.9090909090908 1300)"/><ellipse cx="1390.9090909090908" cy="1276.2" rx="8.4" ry="23.8" transform="rotate(90 1390.9090909090908 1300)"/><ellipse cx="1390.9090909090908" cy="1276.2" rx="8.4" ry="23.8" transform="rotate(135 1390.9090909090908 1300)"/><ellipse cx="1390.9090909090908" cy="1276.2" rx="8.4" ry="23.8" transform="rotate(180 1390.9090909090908 1300)"/><ellipse cx="1390.9090909090908" cy="1276.2" rx="8.4" ry="23.8" transform="rotate(225 1390.9090909090908 1300)"/><ellipse cx="1390.9090909090908" cy="1276.2" rx="8.4" ry="23.8" transform="rotate(270 1390.9090909090908 1300)"/><ellipse cx="1390.9090909090908" cy="1276.2" rx="8.4" ry="23.8" transform="rotate(315 1390.9090909090908 1300)"/><circle cx="1390.9090909090908" cy="1300" r="7.5"/></g><g opacity="0.9"><ellipse cx="1554.5454545454545" cy="1276.2" rx="8.4" ry="23.8" transform="rotate(0 1554.5454545454545 1300)"/><ellipse cx="1554.5454545454545" cy="1276.2" rx="8.4" ry="23.8" transform="rotate(45 1554.5454545454545 1300)"/><ellipse cx="1554.5454545454545" cy="1276.2" rx="8.4" ry="23.8" transform="rotate(90 1554.5454545454545 1300)"/><ellipse cx="1554.5454545454545" cy="1276.2" rx="8.4" ry="23.8" transform="rotate(135 1554.5454545454545 1300)"/><ellipse cx="1554.5454545454545" cy="1276.2" rx="8.4" ry="23.8" transform="rotate(180 1554.5454545454545 1300)"/><ellipse cx="1554.5454545454545" cy="1276.2" rx="8.4" ry="23.8" transform="rotate(225 1554.5454545454545 1300)"/><ellipse cx="1554.5454545454545" cy="1276.2" rx="8.4" ry="23.8" transform="rotate(270 1554.5454545454545 1300)"/><ellipse cx="1554.5454545454545" cy="1276.2" rx="8.4" ry="23.8" transform="rotate(315 1554.5454545454545 1300)"/><circle cx="1554.5454545454545" cy="1300" r="7.5"/></g><g opacity="0.9"><ellipse cx="1718.181818181818" cy="1276.2" rx="8.4" ry="23.8" transform="rotate(0 1718.181818181818 1300)"/><ellipse cx="1718.181818181818" cy="1276.2" rx="8.4" ry="23.8" transform="rotate(45 1718.181818181818 1300)"/><ellipse cx="1718.181818181818" cy="1276.2" rx="8.4" ry="23.8" transform="rotate(90 1718.181818181818 1300)"/><ellipse cx="1718.181818181818" cy="1276.2" rx="8.4" ry="23.8" transform="rotate(135 1718.181818181818 1300)"/><ellipse cx="1718.181818181818" cy="1276.2" rx="8.4" ry="23.8" transform="rotate(180 1718.181818181818 1300)"/><ellipse cx="1718.181818181818" cy="1276.2" rx="8.4" ry="23.8" transform="rotate(225 1718.181818181818 1300)"/><ellipse cx="1718.181818181818" cy="1276.2" rx="8.4" ry="23.8" transform="rotate(270 1718.181818181818 1300)"/><ellipse cx="1718.181818181818" cy="1276.2" rx="8.4" ry="23.8" transform="rotate(315 1718.181818181818 1300)"/><circle cx="1718.181818181818" cy="1300" r="7.5"/></g><path d="M0.0 1026.0 L0.0 1015.0 L9.7 1015.0 L9.7 1004.0 L19.4 1004.0 L19.4 1015.0 L29.0 1015.0 L29.0 1026.0 Z M29.0 1026.0 L29.0 1015.0 L38.7 1015.0 L38.7 1004.0 L48.4 1004.0 L48.4 1015.0 L58.1 1015.0 L58.1 1026.0 Z M58.1 1026.0 L58.1 1015.0 L67.7 1015.0 L67.7 1004.0 L77.4 1004.0 L77.4 1015.0 L87.1 1015.0 L87.1 1026.0 Z M87.1 1026.0 L87.1 1015.0 L96.8 1015.0 L96.8 1004.0 L106.5 1004.0 L106.5 1015.0 L116.1 1015.0 L116.1 1026.0 Z M116.1 1026.0 L116.1 1015.0 L125.8 1015.0 L125.8 1004.0 L135.5 1004.0 L135.5 1015.0 L145.2 1015.0 L145.2 1026.0 Z M145.2 1026.0 L145.2 1015.0 L154.8 1015.0 L154.8 1004.0 L164.5 1004.0 L164.5 1015.0 L174.2 1015.0 L174.2 1026.0 Z M174.2 1026.0 L174.2 1015.0 L183.9 1015.0 L183.9 1004.0 L193.5 1004.0 L193.5 1015.0 L203.2 1015.0 L203.2 1026.0 Z M203.2 1026.0 L203.2 1015.0 L212.9 1015.0 L212.9 1004.0 L222.6 1004.0 L222.6 1015.0 L232.3 1015.0 L232.3 1026.0 Z M232.3 1026.0 L232.3 1015.0 L241.9 1015.0 L241.9 1004.0 L251.6 1004.0 L251.6 1015.0 L261.3 1015.0 L261.3 1026.0 Z M261.3 1026.0 L261.3 1015.0 L271.0 1015.0 L271.0 1004.0 L280.6 1004.0 L280.6 1015.0 L290.3 1015.0 L290.3 1026.0 Z M290.3 1026.0 L290.3 1015.0 L300.0 1015.0 L300.0 1004.0 L309.7 1004.0 L309.7 1015.0 L319.4 1015.0 L319.4 1026.0 Z M319.4 1026.0 L319.4 1015.0 L329.0 1015.0 L329.0 1004.0 L338.7 1004.0 L338.7 1015.0 L348.4 1015.0 L348.4 1026.0 Z M348.4 1026.0 L348.4 1015.0 L358.1 1015.0 L358.1 1004.0 L367.7 1004.0 L367.7 1015.0 L377.4 1015.0 L377.4 1026.0 Z M377.4 1026.0 L377.4 1015.0 L387.1 1015.0 L387.1 1004.0 L396.8 1004.0 L396.8 1015.0 L406.5 1015.0 L406.5 1026.0 Z M406.5 1026.0 L406.5 1015.0 L416.1 1015.0 L416.1 1004.0 L425.8 1004.0 L425.8 1015.0 L435.5 1015.0 L435.5 1026.0 Z M435.5 1026.0 L435.5 1015.0 L445.2 1015.0 L445.2 1004.0 L454.8 1004.0 L454.8 1015.0 L464.5 1015.0 L464.5 1026.0 Z M464.5 1026.0 L464.5 1015.0 L474.2 1015.0 L474.2 1004.0 L483.9 1004.0 L483.9 1015.0 L493.5 1015.0 L493.5 1026.0 Z M493.5 1026.0 L493.5 1015.0 L503.2 1015.0 L503.2 1004.0 L512.9 1004.0 L512.9 1015.0 L522.6 1015.0 L522.6 1026.0 Z M522.6 1026.0 L522.6 1015.0 L532.3 1015.0 L532.3 1004.0 L541.9 1004.0 L541.9 1015.0 L551.6 1015.0 L551.6 1026.0 Z M551.6 1026.0 L551.6 1015.0 L561.3 1015.0 L561.3 1004.0 L571.0 1004.0 L571.0 1015.0 L580.6 1015.0 L580.6 1026.0 Z M580.6 1026.0 L580.6 1015.0 L590.3 1015.0 L590.3 1004.0 L600.0 1004.0 L600.0 1015.0 L609.7 1015.0 L609.7 1026.0 Z M609.7 1026.0 L609.7 1015.0 L619.4 1015.0 L619.4 1004.0 L629.0 1004.0 L629.0 1015.0 L638.7 1015.0 L638.7 1026.0 Z M638.7 1026.0 L638.7 1015.0 L648.4 1015.0 L648.4 1004.0 L658.1 1004.0 L658.1 1015.0 L667.7 1015.0 L667.7 1026.0 Z M667.7 1026.0 L667.7 1015.0 L677.4 1015.0 L677.4 1004.0 L687.1 1004.0 L687.1 1015.0 L696.8 1015.0 L696.8 1026.0 Z M696.8 1026.0 L696.8 1015.0 L706.5 1015.0 L706.5 1004.0 L716.1 1004.0 L716.1 1015.0 L725.8 1015.0 L725.8 1026.0 Z M725.8 1026.0 L725.8 1015.0 L735.5 1015.0 L735.5 1004.0 L745.2 1004.0 L745.2 1015.0 L754.8 1015.0 L754.8 1026.0 Z M754.8 1026.0 L754.8 1015.0 L764.5 1015.0 L764.5 1004.0 L774.2 1004.0 L774.2 1015.0 L783.9 1015.0 L783.9 1026.0 Z M783.9 1026.0 L783.9 1015.0 L793.5 1015.0 L793.5 1004.0 L803.2 1004.0 L803.2 1015.0 L812.9 1015.0 L812.9 1026.0 Z M812.9 1026.0 L812.9 1015.0 L822.6 1015.0 L822.6 1004.0 L832.3 1004.0 L832.3 1015.0 L841.9 1015.0 L841.9 1026.0 Z M841.9 1026.0 L841.9 1015.0 L851.6 1015.0 L851.6 1004.0 L861.3 1004.0 L861.3 1015.0 L871.0 1015.0 L871.0 1026.0 Z M871.0 1026.0 L871.0 1015.0 L880.6 1015.0 L880.6 1004.0 L890.3 1004.0 L890.3 1015.0 L900.0 1015.0 L900.0 1026.0 Z M900.0 1026.0 L900.0 1015.0 L909.7 1015.0 L909.7 1004.0 L919.4 1004.0 L919.4 1015.0 L929.0 1015.0 L929.0 1026.0 Z M929.0 1026.0 L929.0 1015.0 L938.7 1015.0 L938.7 1004.0 L948.4 1004.0 L948.4 1015.0 L958.1 1015.0 L958.1 1026.0 Z M958.1 1026.0 L958.1 1015.0 L967.7 1015.0 L967.7 1004.0 L977.4 1004.0 L977.4 1015.0 L987.1 1015.0 L987.1 1026.0 Z M987.1 1026.0 L987.1 1015.0 L996.8 1015.0 L996.8 1004.0 L1006.5 1004.0 L1006.5 1015.0 L1016.1 1015.0 L1016.1 1026.0 Z M1016.1 1026.0 L1016.1 1015.0 L1025.8 1015.0 L1025.8 1004.0 L1035.5 1004.0 L1035.5 1015.0 L1045.2 1015.0 L1045.2 1026.0 Z M1045.2 1026.0 L1045.2 1015.0 L1054.8 1015.0 L1054.8 1004.0 L1064.5 1004.0 L1064.5 1015.0 L1074.2 1015.0 L1074.2 1026.0 Z M1074.2 1026.0 L1074.2 1015.0 L1083.9 1015.0 L1083.9 1004.0 L1093.5 1004.0 L1093.5 1015.0 L1103.2 1015.0 L1103.2 1026.0 Z M1103.2 1026.0 L1103.2 1015.0 L1112.9 1015.0 L1112.9 1004.0 L1122.6 1004.0 L1122.6 1015.0 L1132.3 1015.0 L1132.3 1026.0 Z M1132.3 1026.0 L1132.3 1015.0 L1141.9 1015.0 L1141.9 1004.0 L1151.6 1004.0 L1151.6 1015.0 L1161.3 1015.0 L1161.3 1026.0 Z M1161.3 1026.0 L1161.3 1015.0 L1171.0 1015.0 L1171.0 1004.0 L1180.6 1004.0 L1180.6 1015.0 L1190.3 1015.0 L1190.3 1026.0 Z M1190.3 1026.0 L1190.3 1015.0 L1200.0 1015.0 L1200.0 1004.0 L1209.7 1004.0 L1209.7 1015.0 L1219.4 1015.0 L1219.4 1026.0 Z M1219.4 1026.0 L1219.4 1015.0 L1229.0 1015.0 L1229.0 1004.0 L1238.7 1004.0 L1238.7 1015.0 L1248.4 1015.0 L1248.4 1026.0 Z M1248.4 1026.0 L1248.4 1015.0 L1258.1 1015.0 L1258.1 1004.0 L1267.7 1004.0 L1267.7 1015.0 L1277.4 1015.0 L1277.4 1026.0 Z M1277.4 1026.0 L1277.4 1015.0 L1287.1 1015.0 L1287.1 1004.0 L1296.8 1004.0 L1296.8 1015.0 L1306.5 1015.0 L1306.5 1026.0 Z M1306.5 1026.0 L1306.5 1015.0 L1316.1 1015.0 L1316.1 1004.0 L1325.8 1004.0 L1325.8 1015.0 L1335.5 1015.0 L1335.5 1026.0 Z M1335.5 1026.0 L1335.5 1015.0 L1345.2 1015.0 L1345.2 1004.0 L1354.8 1004.0 L1354.8 1015.0 L1364.5 1015.0 L1364.5 1026.0 Z M1364.5 1026.0 L1364.5 1015.0 L1374.2 1015.0 L1374.2 1004.0 L1383.9 1004.0 L1383.9 1015.0 L1393.5 1015.0 L1393.5 1026.0 Z M1393.5 1026.0 L1393.5 1015.0 L1403.2 1015.0 L1403.2 1004.0 L1412.9 1004.0 L1412.9 1015.0 L1422.6 1015.0 L1422.6 1026.0 Z M1422.6 1026.0 L1422.6 1015.0 L1432.3 1015.0 L1432.3 1004.0 L1441.9 1004.0 L1441.9 1015.0 L1451.6 1015.0 L1451.6 1026.0 Z M1451.6 1026.0 L1451.6 1015.0 L1461.3 1015.0 L1461.3 1004.0 L1471.0 1004.0 L1471.0 1015.0 L1480.6 1015.0 L1480.6 1026.0 Z M1480.6 1026.0 L1480.6 1015.0 L1490.3 1015.0 L1490.3 1004.0 L1500.0 1004.0 L1500.0 1015.0 L1509.7 1015.0 L1509.7 1026.0 Z M1509.7 1026.0 L1509.7 1015.0 L1519.4 1015.0 L1519.4 1004.0 L1529.0 1004.0 L1529.0 1015.0 L1538.7 1015.0 L1538.7 1026.0 Z M1538.7 1026.0 L1538.7 1015.0 L1548.4 1015.0 L1548.4 1004.0 L1558.1 1004.0 L1558.1 1015.0 L1567.7 1015.0 L1567.7 1026.0 Z M1567.7 1026.0 L1567.7 1015.0 L1577.4 1015.0 L1577.4 1004.0 L1587.1 1004.0 L1587.1 1015.0 L1596.8 1015.0 L1596.8 1026.0 Z M1596.8 1026.0 L1596.8 1015.0 L1606.5 1015.0 L1606.5 1004.0 L1616.1 1004.0 L1616.1 1015.0 L1625.8 1015.0 L1625.8 1026.0 Z M1625.8 1026.0 L1625.8 1015.0 L1635.5 1015.0 L1635.5 1004.0 L1645.2 1004.0 L1645.2 1015.0 L1654.8 1015.0 L1654.8 1026.0 Z M1654.8 1026.0 L1654.8 1015.0 L1664.5 1015.0 L1664.5 1004.0 L1674.2 1004.0 L1674.2 1015.0 L1683.9 1015.0 L1683.9 1026.0 Z M1683.9 1026.0 L1683.9 1015.0 L1693.5 1015.0 L1693.5 1004.0 L1703.2 1004.0 L1703.2 1015.0 L1712.9 1015.0 L1712.9 1026.0 Z M1712.9 1026.0 L1712.9 1015.0 L1722.6 1015.0 L1722.6 1004.0 L1732.3 1004.0 L1732.3 1015.0 L1741.9 1015.0 L1741.9 1026.0 Z M1741.9 1026.0 L1741.9 1015.0 L1751.6 1015.0 L1751.6 1004.0 L1761.3 1004.0 L1761.3 1015.0 L1771.0 1015.0 L1771.0 1026.0 Z M1771.0 1026.0 L1771.0 1015.0 L1780.6 1015.0 L1780.6 1004.0 L1790.3 1004.0 L1790.3 1015.0 L1800.0 1015.0 L1800.0 1026.0 Z " opacity="0.9"/></g><rect x="1632" y="0" width="168" height="1400" fill="#2B0A14"/><rect x="1632" y="0" width="168" height="1400" fill="url(#weave)"/><g fill="url(#zari)" color="#D4B375"><g transform="rotate(90 1632 0) translate(0 -1632)"><path d="M0.0 1596.0 L0.0 1613.0 L9.9 1613.0 L9.9 1630.0 L19.9 1630.0 L19.9 1613.0 L29.8 1613.0 L29.8 1596.0 Z M29.8 1596.0 L29.8 1613.0 L39.7 1613.0 L39.7 1630.0 L49.6 1630.0 L49.6 1613.0 L59.6 1613.0 L59.6 1596.0 Z M59.6 1596.0 L59.6 1613.0 L69.5 1613.0 L69.5 1630.0 L79.4 1630.0 L79.4 1613.0 L89.4 1613.0 L89.4 1596.0 Z M89.4 1596.0 L89.4 1613.0 L99.3 1613.0 L99.3 1630.0 L109.2 1630.0 L109.2 1613.0 L119.1 1613.0 L119.1 1596.0 Z M119.1 1596.0 L119.1 1613.0 L129.1 1613.0 L129.1 1630.0 L139.0 1630.0 L139.0 1613.0 L148.9 1613.0 L148.9 1596.0 Z M148.9 1596.0 L148.9 1613.0 L158.9 1613.0 L158.9 1630.0 L168.8 1630.0 L168.8 1613.0 L178.7 1613.0 L178.7 1596.0 Z M178.7 1596.0 L178.7 1613.0 L188.7 1613.0 L188.7 1630.0 L198.6 1630.0 L198.6 1613.0 L208.5 1613.0 L208.5 1596.0 Z M208.5 1596.0 L208.5 1613.0 L218.4 1613.0 L218.4 1630.0 L228.4 1630.0 L228.4 1613.0 L238.3 1613.0 L238.3 1596.0 Z M238.3 1596.0 L238.3 1613.0 L248.2 1613.0 L248.2 1630.0 L258.2 1630.0 L258.2 1613.0 L268.1 1613.0 L268.1 1596.0 Z M268.1 1596.0 L268.1 1613.0 L278.0 1613.0 L278.0 1630.0 L287.9 1630.0 L287.9 1613.0 L297.9 1613.0 L297.9 1596.0 Z M297.9 1596.0 L297.9 1613.0 L307.8 1613.0 L307.8 1630.0 L317.7 1630.0 L317.7 1613.0 L327.7 1613.0 L327.7 1596.0 Z M327.7 1596.0 L327.7 1613.0 L337.6 1613.0 L337.6 1630.0 L347.5 1630.0 L347.5 1613.0 L357.4 1613.0 L357.4 1596.0 Z M357.4 1596.0 L357.4 1613.0 L367.4 1613.0 L367.4 1630.0 L377.3 1630.0 L377.3 1613.0 L387.2 1613.0 L387.2 1596.0 Z M387.2 1596.0 L387.2 1613.0 L397.2 1613.0 L397.2 1630.0 L407.1 1630.0 L407.1 1613.0 L417.0 1613.0 L417.0 1596.0 Z M417.0 1596.0 L417.0 1613.0 L427.0 1613.0 L427.0 1630.0 L436.9 1630.0 L436.9 1613.0 L446.8 1613.0 L446.8 1596.0 Z M446.8 1596.0 L446.8 1613.0 L456.7 1613.0 L456.7 1630.0 L466.7 1630.0 L466.7 1613.0 L476.6 1613.0 L476.6 1596.0 Z M476.6 1596.0 L476.6 1613.0 L486.5 1613.0 L486.5 1630.0 L496.5 1630.0 L496.5 1613.0 L506.4 1613.0 L506.4 1596.0 Z M506.4 1596.0 L506.4 1613.0 L516.3 1613.0 L516.3 1630.0 L526.2 1630.0 L526.2 1613.0 L536.2 1613.0 L536.2 1596.0 Z M536.2 1596.0 L536.2 1613.0 L546.1 1613.0 L546.1 1630.0 L556.0 1630.0 L556.0 1613.0 L566.0 1613.0 L566.0 1596.0 Z M566.0 1596.0 L566.0 1613.0 L575.9 1613.0 L575.9 1630.0 L585.8 1630.0 L585.8 1613.0 L595.7 1613.0 L595.7 1596.0 Z M595.7 1596.0 L595.7 1613.0 L605.7 1613.0 L605.7 1630.0 L615.6 1630.0 L615.6 1613.0 L625.5 1613.0 L625.5 1596.0 Z M625.5 1596.0 L625.5 1613.0 L635.5 1613.0 L635.5 1630.0 L645.4 1630.0 L645.4 1613.0 L655.3 1613.0 L655.3 1596.0 Z M655.3 1596.0 L655.3 1613.0 L665.2 1613.0 L665.2 1630.0 L675.2 1630.0 L675.2 1613.0 L685.1 1613.0 L685.1 1596.0 Z M685.1 1596.0 L685.1 1613.0 L695.0 1613.0 L695.0 1630.0 L705.0 1630.0 L705.0 1613.0 L714.9 1613.0 L714.9 1596.0 Z M714.9 1596.0 L714.9 1613.0 L724.8 1613.0 L724.8 1630.0 L734.8 1630.0 L734.8 1613.0 L744.7 1613.0 L744.7 1596.0 Z M744.7 1596.0 L744.7 1613.0 L754.6 1613.0 L754.6 1630.0 L764.5 1630.0 L764.5 1613.0 L774.5 1613.0 L774.5 1596.0 Z M774.5 1596.0 L774.5 1613.0 L784.4 1613.0 L784.4 1630.0 L794.3 1630.0 L794.3 1613.0 L804.3 1613.0 L804.3 1596.0 Z M804.3 1596.0 L804.3 1613.0 L814.2 1613.0 L814.2 1630.0 L824.1 1630.0 L824.1 1613.0 L834.0 1613.0 L834.0 1596.0 Z M834.0 1596.0 L834.0 1613.0 L844.0 1613.0 L844.0 1630.0 L853.9 1630.0 L853.9 1613.0 L863.8 1613.0 L863.8 1596.0 Z M863.8 1596.0 L863.8 1613.0 L873.8 1613.0 L873.8 1630.0 L883.7 1630.0 L883.7 1613.0 L893.6 1613.0 L893.6 1596.0 Z M893.6 1596.0 L893.6 1613.0 L903.5 1613.0 L903.5 1630.0 L913.5 1630.0 L913.5 1613.0 L923.4 1613.0 L923.4 1596.0 Z M923.4 1596.0 L923.4 1613.0 L933.3 1613.0 L933.3 1630.0 L943.3 1630.0 L943.3 1613.0 L953.2 1613.0 L953.2 1596.0 Z M953.2 1596.0 L953.2 1613.0 L963.1 1613.0 L963.1 1630.0 L973.0 1630.0 L973.0 1613.0 L983.0 1613.0 L983.0 1596.0 Z M983.0 1596.0 L983.0 1613.0 L992.9 1613.0 L992.9 1630.0 L1002.8 1630.0 L1002.8 1613.0 L1012.8 1613.0 L1012.8 1596.0 Z M1012.8 1596.0 L1012.8 1613.0 L1022.7 1613.0 L1022.7 1630.0 L1032.6 1630.0 L1032.6 1613.0 L1042.6 1613.0 L1042.6 1596.0 Z M1042.6 1596.0 L1042.6 1613.0 L1052.5 1613.0 L1052.5 1630.0 L1062.4 1630.0 L1062.4 1613.0 L1072.3 1613.0 L1072.3 1596.0 Z M1072.3 1596.0 L1072.3 1613.0 L1082.3 1613.0 L1082.3 1630.0 L1092.2 1630.0 L1092.2 1613.0 L1102.1 1613.0 L1102.1 1596.0 Z M1102.1 1596.0 L1102.1 1613.0 L1112.1 1613.0 L1112.1 1630.0 L1122.0 1630.0 L1122.0 1613.0 L1131.9 1613.0 L1131.9 1596.0 Z M1131.9 1596.0 L1131.9 1613.0 L1141.8 1613.0 L1141.8 1630.0 L1151.8 1630.0 L1151.8 1613.0 L1161.7 1613.0 L1161.7 1596.0 Z M1161.7 1596.0 L1161.7 1613.0 L1171.6 1613.0 L1171.6 1630.0 L1181.6 1630.0 L1181.6 1613.0 L1191.5 1613.0 L1191.5 1596.0 Z M1191.5 1596.0 L1191.5 1613.0 L1201.4 1613.0 L1201.4 1630.0 L1211.3 1630.0 L1211.3 1613.0 L1221.3 1613.0 L1221.3 1596.0 Z M1221.3 1596.0 L1221.3 1613.0 L1231.2 1613.0 L1231.2 1630.0 L1241.1 1630.0 L1241.1 1613.0 L1251.1 1613.0 L1251.1 1596.0 Z M1251.1 1596.0 L1251.1 1613.0 L1261.0 1613.0 L1261.0 1630.0 L1270.9 1630.0 L1270.9 1613.0 L1280.9 1613.0 L1280.9 1596.0 Z M1280.9 1596.0 L1280.9 1613.0 L1290.8 1613.0 L1290.8 1630.0 L1300.7 1630.0 L1300.7 1613.0 L1310.6 1613.0 L1310.6 1596.0 Z M1310.6 1596.0 L1310.6 1613.0 L1320.6 1613.0 L1320.6 1630.0 L1330.5 1630.0 L1330.5 1613.0 L1340.4 1613.0 L1340.4 1596.0 Z M1340.4 1596.0 L1340.4 1613.0 L1350.4 1613.0 L1350.4 1630.0 L1360.3 1630.0 L1360.3 1613.0 L1370.2 1613.0 L1370.2 1596.0 Z M1370.2 1596.0 L1370.2 1613.0 L1380.1 1613.0 L1380.1 1630.0 L1390.1 1630.0 L1390.1 1613.0 L1400.0 1613.0 L1400.0 1596.0 Z " opacity="0.92"/></g><rect x="1646" y="0" width="2.5" height="1400" opacity="0.8"/><rect x="1658" y="0" width="5" height="1400" opacity="0.8"/><rect x="1772" y="0" width="5" height="1400" opacity="0.8"/><rect x="1784" y="0" width="2.5" height="1400" opacity="0.8"/><g opacity="0.88"><circle cx="1716" cy="58" r="23.4" fill="none" stroke="currentColor" stroke-width="2.60"/><circle cx="1716" cy="58" r="14.6" fill="none" stroke="currentColor" stroke-width="2.08"/><circle cx="1716" cy="58" r="5.2"/></g><g opacity="0.88"><circle cx="1716" cy="176" r="23.4" fill="none" stroke="currentColor" stroke-width="2.60"/><circle cx="1716" cy="176" r="14.6" fill="none" stroke="currentColor" stroke-width="2.08"/><circle cx="1716" cy="176" r="5.2"/></g><g opacity="0.88"><circle cx="1716" cy="294" r="23.4" fill="none" stroke="currentColor" stroke-width="2.60"/><circle cx="1716" cy="294" r="14.6" fill="none" stroke="currentColor" stroke-width="2.08"/><circle cx="1716" cy="294" r="5.2"/></g><g opacity="0.88"><circle cx="1716" cy="412" r="23.4" fill="none" stroke="currentColor" stroke-width="2.60"/><circle cx="1716" cy="412" r="14.6" fill="none" stroke="currentColor" stroke-width="2.08"/><circle cx="1716" cy="412" r="5.2"/></g><g opacity="0.88"><circle cx="1716" cy="530" r="23.4" fill="none" stroke="currentColor" stroke-width="2.60"/><circle cx="1716" cy="530" r="14.6" fill="none" stroke="currentColor" stroke-width="2.08"/><circle cx="1716" cy="530" r="5.2"/></g><g opacity="0.88"><circle cx="1716" cy="648" r="23.4" fill="none" stroke="currentColor" stroke-width="2.60"/><circle cx="1716" cy="648" r="14.6" fill="none" stroke="currentColor" stroke-width="2.08"/><circle cx="1716" cy="648" r="5.2"/></g><g opacity="0.88"><circle cx="1716" cy="766" r="23.4" fill="none" stroke="currentColor" stroke-width="2.60"/><circle cx="1716" cy="766" r="14.6" fill="none" stroke="currentColor" stroke-width="2.08"/><circle cx="1716" cy="766" r="5.2"/></g><g opacity="0.88"><circle cx="1716" cy="884" r="23.4" fill="none" stroke="currentColor" stroke-width="2.60"/><circle cx="1716" cy="884" r="14.6" fill="none" stroke="currentColor" stroke-width="2.08"/><circle cx="1716" cy="884" r="5.2"/></g><g opacity="0.88"><circle cx="1716" cy="1002" r="23.4" fill="none" stroke="currentColor" stroke-width="2.60"/><circle cx="1716" cy="1002" r="14.6" fill="none" stroke="currentColor" stroke-width="2.08"/><circle cx="1716" cy="1002" r="5.2"/></g><g opacity="0.88"><circle cx="1716" cy="1120" r="23.4" fill="none" stroke="currentColor" stroke-width="2.60"/><circle cx="1716" cy="1120" r="14.6" fill="none" stroke="currentColor" stroke-width="2.08"/><circle cx="1716" cy="1120" r="5.2"/></g><g opacity="0.88"><circle cx="1716" cy="1238" r="23.4" fill="none" stroke="currentColor" stroke-width="2.60"/><circle cx="1716" cy="1238" r="14.6" fill="none" stroke="currentColor" stroke-width="2.08"/><circle cx="1716" cy="1238" r="5.2"/></g><g opacity="0.88"><circle cx="1716" cy="1356" r="23.4" fill="none" stroke="currentColor" stroke-width="2.60"/><circle cx="1716" cy="1356" r="14.6" fill="none" stroke="currentColor" stroke-width="2.08"/><circle cx="1716" cy="1356" r="5.2"/></g></g><rect x="0" y="0" width="34" height="1400" fill="#2B0A14"/><rect x="38" y="0" width="3" height="1400" fill="#D4B375" opacity="0.65"/><rect width="1800" height="1400" fill="url(#drape)" style="mix-blend-mode:soft-light"/><rect width="1800" height="1400" fill="url(#vignette)"/></svg>